<svg width="93" height="29" xmlns="http://www.w3.org/2000/svg">

 <g>
  <title>Layer 1</title>
  <text xml:space="preserve" text-anchor="start" font-family="'Texturina'" font-size="24" id="svg_4" y="84" x="130" stroke-width="0" stroke="#000" fill="#000000">Zeeshan</text>
  <path d="m109,59c-1,1 -2.38074,1.52221 -5,4c-3.63227,3.43607 -5.70546,6.34619 -8,8c-1.814,1.30745 -2,2 -2,3c0,3 0,4 0,5c0,1 0,2 0,2c0,1 1,1 4,1c1,0 2,0 3,0c2,0 5,0 6,0c2,0 4.07612,-0.38268 5,0c1.30656,0.5412 1.95517,3.54916 3,7c2.60806,8.61383 0,11 0,14c0,2 0,3 0,4c0,1 0,2 0,3c0,0 1,0 5,0c3,0 8,0 13,0c3,0 5,0 8,0c1,0 2,0 3,0c1,0 2,-1 3,-2c2,-2 5,-5 7,-7c1,-1 3.29289,-0.29289 4,-1c0.70711,-0.70711 1,-1 1,-2c0,-1 0,-1 -1,-1c-1,0 -2,0 -3,0c-1,0 -2,0 -3,0c0,0 -1,0 -2,0c-1,0 -2,0 -2,-1c0,-1 0,-1 0,-2c0,-1 -0.29289,-1.29289 -1,-2c-0.70711,-0.70711 -2,0 -2,0c-1,0 -2,0 -3,0c0,0 -1,0 -3,0c-1,0 -2,0 -3,0c-1,0 -2,0 -2,0c-1,0 -1.29289,-0.29289 -2,-1c-0.70711,-0.70711 -1,-1 -2,-1c-1,0 -1.29289,-0.29289 -2,-1c-0.70711,-0.70711 -0.82375,-1.48626 -3,-2c-0.97325,-0.22975 -1,0 -2,0c-1,0 -2,0 -2,-1c0,0 -0.58578,0.41422 -2,-1c-0.70711,-0.70711 0,-2 0,-3c0,0 0,-1 0,-2c0,-1 0,-2 0,-3c0,-1 0,-2 0,-3c0,0 0,-1 0,-2c0,-1 0,-2 0,-2c0,-1 0,-2 -2,-4c-1,-1 -1,-2 -2,-2c-1,0 -1,-1 -2,-1c-1,0 -1.82443,0.90211 -3,-1c-0.52573,-0.85065 0,-2 0,-2c-1,0 -1,-1 -1,-2l0,0l0,-1" id="svg_6" stroke="#000" fill="#559E84"/>
  <text xml:space="preserve" text-anchor="start" font-family="'Texturina'" font-size="16" stroke-width="0" id="svg_7" y="18.5" x="26.5" stroke="#000" fill="#000000">Zeeshan</text>
  <path d="m7.5,3.5c-1,1 -2.17309,1.85273 -3,3c-1.30745,1.81399 -1,4 -1,5c0,2 -0.4588,4.69344 -1,6c-0.38268,0.92388 0,2 0,3c0,1 0,1 1,1c1,0 2,0 2,0c1,0 2,0 3,0c1,0 2,0 4,0c2,0 3,0 4,0c1,0 1,0 2,0c1,0 4.41886,-0.25658 6,-5c0.31623,-0.94868 0,-2 0,-4c0,-1 0,-2 0,-3c0,-1 0.70711,-1.29289 0,-2c-0.70711,-0.70711 -2,0 -3,0c-1,0 -1,0 -2,0c-1,0 -2,0 -3,0c0,0 -1,0 -2,0c-1,0 -1,0 -2,0l-1,0l-1,0l0,0" id="svg_11" stroke-width="0" fill="#0cf27a"/>
 </g>
</svg>